<?xml version="1.0" encoding="UTF-8"?>
<!DOCTYPE svg PUBLIC "-//W3C//DTD SVG 1.1//EN" "http://www.w3.org/Graphics/SVG/1.1/DTD/svg11.dtd">
<svg xmlns="http://www.w3.org/2000/svg" version="1.1" width="1512px" height="1008px" style="shape-rendering:geometricPrecision; text-rendering:geometricPrecision; image-rendering:optimizeQuality; fill-rule:evenodd; clip-rule:evenodd" xmlns:xlink="http://www.w3.org/1999/xlink">
<g><path style="opacity:1" fill="#eaeaf3" d="M -0.5,-0.5 C 503.5,-0.5 1007.5,-0.5 1511.5,-0.5C 1511.5,101.833 1511.5,204.167 1511.5,306.5C 1484.74,295.288 1458.07,283.788 1431.5,272C 1409.53,267.903 1394.03,276.069 1385,296.5C 1355.92,362.981 1326.59,429.315 1297,495.5C 1268,422.833 1239,350.167 1210,277.5C 1200.1,259.97 1185.26,253.47 1165.5,258C 1112.35,278.881 1059.35,300.047 1006.5,321.5C 1006.83,277.997 1006.5,234.663 1005.5,191.5C 1002.46,175.591 993.123,165.424 977.5,161C 844.834,160.5 712.167,160.333 579.5,160.5C 579.667,146.829 579.5,133.163 579,119.5C 577.313,113.982 573.813,110.315 568.5,108.5C 566.354,104.605 563.021,102.439 558.5,102C 528.167,101.333 497.833,101.333 467.5,102C 464.098,103.4 461.264,105.567 459,108.5C 457.348,140.414 457.015,172.414 458,204.5C 458.84,208.5 461.006,211.5 464.5,213.5C 465.921,218.09 468.921,221.256 473.5,223C 483.768,224.399 494.102,224.899 504.5,224.5C 504.5,257.167 504.5,289.833 504.5,322.5C 440.409,297.29 376.409,271.79 312.5,246C 292.395,239.589 276.562,245.089 265,262.5C 236.647,334.4 207.813,406.067 178.5,477.5C 166.236,409.25 154.403,340.916 143,272.5C 137.951,254.291 125.951,244.291 107,242.5C 71.1433,248.455 35.31,254.455 -0.5,260.5C -0.5,173.5 -0.5,86.5 -0.5,-0.5 Z"/></g>
<g><path style="opacity:1" fill="#5f83c6" d="M 568.5,108.5 C 569.939,110.588 570.606,112.921 570.5,115.5C 570.5,130.5 570.5,145.5 570.5,160.5C 570.5,169.833 570.5,179.167 570.5,188.5C 570.5,193.5 570.5,198.5 570.5,203.5C 568.921,210.412 564.587,214.079 557.5,214.5C 526.427,214.825 495.427,214.492 464.5,213.5C 461.006,211.5 458.84,208.5 458,204.5C 457.015,172.414 457.348,140.414 459,108.5C 461.264,105.567 464.098,103.4 467.5,102C 497.833,101.333 528.167,101.333 558.5,102C 563.021,102.439 566.354,104.605 568.5,108.5 Z"/></g>
<g><path style="opacity:1" fill="#6084c6" d="M 360.5,103.5 C 361.512,104.872 362.512,106.205 363.5,107.5C 363.5,108.833 363.5,110.167 363.5,111.5C 363.667,123.838 363.5,136.171 363,148.5C 361.5,150 360,151.5 358.5,153C 324.502,153.5 290.502,153.667 256.5,153.5C 256.167,153.5 255.833,153.5 255.5,153.5C 253.216,153.025 251.216,152.025 249.5,150.5C 248.367,135.878 248.2,121.211 249,106.5C 250.543,104.622 252.376,103.122 254.5,102C 288.833,101.333 323.167,101.333 357.5,102C 358.527,102.513 359.527,103.013 360.5,103.5 Z"/></g>
<g><path style="opacity:1" fill="#e0e0e8" d="M 360.5,103.5 C 367.621,103.48 372.454,106.813 375,113.5C 377,127.833 377,142.167 375,156.5C 372.632,161.435 368.799,164.602 363.5,166C 349.171,166.5 334.837,166.667 320.5,166.5C 319.833,166.5 319.5,166.167 319.5,165.5C 318.833,164.5 318.167,163.5 317.5,162.5C 332.837,162.667 348.17,162.5 363.5,162C 367.603,159.955 370.436,156.788 372,152.5C 372.667,140.833 372.667,129.167 372,117.5C 370.769,112.772 367.936,109.439 363.5,107.5C 362.512,106.205 361.512,104.872 360.5,103.5 Z"/></g>
<g><path style="opacity:1" fill="#bfc0ca" d="M 363.5,111.5 C 365.129,112.625 366.629,113.959 368,115.5C 370,128.167 370,140.833 368,153.5C 367.167,155.667 365.667,157.167 363.5,158C 347.567,159.621 331.567,159.954 315.5,159C 314.707,157.915 314.04,156.748 313.5,155.5C 294.338,154.833 275.338,154.167 256.5,153.5C 290.502,153.667 324.502,153.5 358.5,153C 360,151.5 361.5,150 363,148.5C 363.5,136.171 363.667,123.838 363.5,111.5 Z"/></g>
<g><path style="opacity:1" fill="#e0e8fa" d="M 271.5,113.5 C 275.846,113.334 280.179,113.501 284.5,114C 290.095,116.354 291.928,120.521 290,126.5C 286.658,130.922 282.158,132.589 276.5,131.5C 276.5,134.833 276.5,138.167 276.5,141.5C 274.833,141.5 273.167,141.5 271.5,141.5C 271.5,132.167 271.5,122.833 271.5,113.5 Z"/></g>
<g><path style="opacity:1" fill="#dae4f8" d="M 294.5,113.5 C 301.549,112.718 308.216,113.885 314.5,117C 320.05,124.602 319.716,131.935 313.5,139C 307.395,141.248 301.061,142.081 294.5,141.5C 294.5,132.167 294.5,122.833 294.5,113.5 Z"/></g>
<g><path style="opacity:1" fill="#d3def5" d="M 322.5,113.5 C 328.5,113.5 334.5,113.5 340.5,113.5C 340.5,115.167 340.5,116.833 340.5,118.5C 336.5,118.5 332.5,118.5 328.5,118.5C 328.5,120.833 328.5,123.167 328.5,125.5C 331.5,125.5 334.5,125.5 337.5,125.5C 337.5,127.167 337.5,128.833 337.5,130.5C 334.5,130.5 331.5,130.5 328.5,130.5C 328.5,134.167 328.5,137.833 328.5,141.5C 326.5,141.5 324.5,141.5 322.5,141.5C 322.5,132.167 322.5,122.833 322.5,113.5 Z"/></g>
<g><path style="opacity:1" fill="#c1c1c9" d="M 570.5,115.5 C 573.317,118.142 574.817,121.475 575,125.5C 575.5,137.162 575.667,148.829 575.5,160.5C 573.833,160.5 572.167,160.5 570.5,160.5C 570.5,145.5 570.5,130.5 570.5,115.5 Z"/></g>
<g><path style="opacity:1" fill="#8ba5d8" d="M 282.5,118.5 C 280.833,118.5 279.167,118.5 277.5,118.5C 277.5,121.167 277.5,123.833 277.5,126.5C 279.167,126.5 280.833,126.5 282.5,126.5C 280.735,127.461 278.735,127.795 276.5,127.5C 276.5,124.167 276.5,120.833 276.5,117.5C 278.735,117.205 280.735,117.539 282.5,118.5 Z"/></g>
<g><path style="opacity:1" fill="#6285c7" d="M 282.5,118.5 C 284.722,118.559 285.722,119.725 285.5,122C 285.586,124.352 284.586,125.852 282.5,126.5C 280.833,126.5 279.167,126.5 277.5,126.5C 277.5,123.833 277.5,121.167 277.5,118.5C 279.167,118.5 280.833,118.5 282.5,118.5 Z"/></g>
<g><path style="opacity:1" fill="#6084c6" d="M 300.5,118.5 C 307.73,116.907 311.73,119.741 312.5,127C 312.387,134.895 308.387,138.395 300.5,137.5C 300.5,131.167 300.5,124.833 300.5,118.5 Z"/></g>
<g><path style="opacity:1" fill="#d2d2d7" d="M 568.5,108.5 C 573.813,110.315 577.313,113.982 579,119.5C 579.5,133.163 579.667,146.829 579.5,160.5C 577.528,169.44 576.861,178.773 577.5,188.5C 575.167,188.5 572.833,188.5 570.5,188.5C 570.5,179.167 570.5,169.833 570.5,160.5C 572.167,160.5 573.833,160.5 575.5,160.5C 575.667,148.829 575.5,137.162 575,125.5C 574.817,121.475 573.317,118.142 570.5,115.5C 570.606,112.921 569.939,110.588 568.5,108.5 Z"/></g>
<g><path style="opacity:1" fill="#dfe8fa" d="M 485.5,131.5 C 489.226,131.177 492.893,131.511 496.5,132.5C 498.442,142.47 500.275,152.47 502,162.5C 503.854,152.42 506.02,142.42 508.5,132.5C 512.107,131.511 515.774,131.177 519.5,131.5C 521.01,141.545 522.844,151.545 525,161.5C 527.155,151.594 528.655,141.594 529.5,131.5C 533.167,131.5 536.833,131.5 540.5,131.5C 537.552,148.908 534.218,166.241 530.5,183.5C 526.774,183.823 523.107,183.489 519.5,182.5C 517.778,173.057 515.612,163.723 513,154.5C 510.715,164.093 508.881,173.76 507.5,183.5C 503.5,183.5 499.5,183.5 495.5,183.5C 492.038,166.192 488.705,148.859 485.5,131.5 Z"/></g>
<g><path style="opacity:1" fill="#dedee6" d="M 249.5,150.5 C 251.216,152.025 253.216,153.025 255.5,153.5C 255.343,154.873 255.51,156.207 256,157.5C 258.08,159.123 260.246,160.623 262.5,162C 279.497,162.5 296.497,162.667 313.5,162.5C 314.391,163.261 315.058,164.261 315.5,165.5C 297.843,166.666 280.176,166.833 262.5,166C 255.095,163.427 250.761,158.26 249.5,150.5 Z"/></g>
<g><path style="opacity:1" fill="#ccccd4" d="M 363.5,107.5 C 367.936,109.439 370.769,112.772 372,117.5C 372.667,129.167 372.667,140.833 372,152.5C 370.436,156.788 367.603,159.955 363.5,162C 348.17,162.5 332.837,162.667 317.5,162.5C 315.998,159.978 314.665,159.978 313.5,162.5C 296.497,162.667 279.497,162.5 262.5,162C 260.246,160.623 258.08,159.123 256,157.5C 255.51,156.207 255.343,154.873 255.5,153.5C 255.833,153.5 256.167,153.5 256.5,153.5C 275.338,154.167 294.338,154.833 313.5,155.5C 314.04,156.748 314.707,157.915 315.5,159C 331.567,159.954 347.567,159.621 363.5,158C 365.667,157.167 367.167,155.667 368,153.5C 370,140.833 370,128.167 368,115.5C 366.629,113.959 365.129,112.625 363.5,111.5C 363.5,110.167 363.5,108.833 363.5,107.5 Z"/></g>
<g><path style="opacity:1" fill="#fefefe" d="M 579.5,160.5 C 712.167,160.333 844.834,160.5 977.5,161C 993.123,165.424 1002.46,175.591 1005.5,191.5C 1005.67,400.834 1005.5,610.167 1005,819.5C 1000.74,833.432 991.568,842.265 977.5,846C 829.5,846.667 681.5,846.667 533.5,846C 517.877,841.576 508.544,831.409 505.5,815.5C 505.333,733.833 505.5,652.166 506,570.5C 524.754,543.263 543.254,515.929 561.5,488.5C 562.625,490.129 563.959,491.629 565.5,493C 699.167,493.667 832.833,493.667 966.5,493C 971.833,488.333 971.833,483.667 966.5,479C 833.834,478.5 701.167,478.333 568.5,478.5C 573.324,470.857 578.158,463.19 583,455.5C 583.495,453.527 583.662,451.527 583.5,449.5C 595.5,448.833 595.5,448.167 583.5,447.5C 581.748,442.96 578.415,441.127 573.5,442C 571.561,443.432 570.228,445.265 569.5,447.5C 568.599,448.29 567.932,449.29 567.5,450.5C 565.808,452.205 564.475,454.205 563.5,456.5C 543.425,484.976 524.092,513.976 505.5,543.5C 500.477,549.867 495.81,556.534 491.5,563.5C 489.533,566.477 487.533,569.477 485.5,572.5C 482.747,551.546 480.413,530.546 478.5,509.5C 478.739,507.533 478.406,505.699 477.5,504C 460.757,494.962 443.757,486.462 426.5,478.5C 423.564,476.692 420.564,474.859 417.5,473C 446.431,466.51 475.431,460.343 504.5,454.5C 505.499,379.335 505.833,304.002 505.5,228.5C 521.5,228.5 537.5,228.5 553.5,228.5C 552.618,232.909 553.952,236.409 557.5,239C 693.833,239.667 830.167,239.667 966.5,239C 971.833,234.333 971.833,229.667 966.5,225C 836.167,224.5 705.834,224.333 575.5,224.5C 581.401,218.814 584.401,211.814 584.5,203.5C 620.835,203.667 657.168,203.5 693.5,203C 698.833,198.333 698.833,193.667 693.5,189C 654.835,188.5 616.168,188.333 577.5,188.5C 576.861,178.773 577.528,169.44 579.5,160.5 Z"/></g>
<g><path style="opacity:1" fill="#fefefe" d="M 319.5,165.5 C 319.5,166.167 319.833,166.5 320.5,166.5C 340.775,191.981 366.775,200.814 398.5,193C 393.363,193.547 391.697,191.547 393.5,187C 394.766,186.691 395.933,186.191 397,185.5C 403.405,186.692 409.905,187.525 416.5,188C 417.846,190.794 417.346,193.294 415,195.5C 411.833,198.667 408.667,201.833 405.5,205C 403.783,206.559 401.783,207.392 399.5,207.5C 399.232,204.881 399.565,202.381 400.5,200C 365.684,207.841 337.851,197.341 317,168.5C 316.517,167.552 316.351,166.552 316.5,165.5C 317.5,165.5 318.5,165.5 319.5,165.5 Z"/></g>
<g><path style="opacity:1" fill="#bdc4d1" d="M 570.5,188.5 C 572.833,188.5 575.167,188.5 577.5,188.5C 577.5,193.5 577.5,198.5 577.5,203.5C 576.167,203.5 574.833,203.5 573.5,203.5C 572.5,203.5 571.5,203.5 570.5,203.5C 570.5,198.5 570.5,193.5 570.5,188.5 Z"/></g>
<g><path style="opacity:1" fill="#e3ebfb" d="M 577.5,188.5 C 616.168,188.333 654.835,188.5 693.5,189C 698.833,193.667 698.833,198.333 693.5,203C 657.168,203.5 620.835,203.667 584.5,203.5C 582.5,203.5 580.5,203.5 578.5,203.5C 578.167,203.5 577.833,203.5 577.5,203.5C 577.5,198.5 577.5,193.5 577.5,188.5 Z"/></g>
<g><path style="opacity:1" fill="#cfcfd0" d="M 570.5,203.5 C 571.5,203.5 572.5,203.5 573.5,203.5C 574.181,211.65 570.514,216.484 562.5,218C 543.094,218.179 523.76,218.679 504.5,219.5C 504.5,218.167 504.5,216.833 504.5,215.5C 522.341,215.83 540.008,215.497 557.5,214.5C 564.587,214.079 568.921,210.412 570.5,203.5 Z"/></g>
<g><path style="opacity:1" fill="#dbdbdc" d="M 573.5,203.5 C 574.833,203.5 576.167,203.5 577.5,203.5C 577.833,203.5 578.167,203.5 578.5,203.5C 579.315,212.375 575.648,218.542 567.5,222C 546.54,223.429 525.54,223.929 504.5,223.5C 504.5,222.167 504.5,220.833 504.5,219.5C 523.76,218.679 543.094,218.179 562.5,218C 570.514,216.484 574.181,211.65 573.5,203.5 Z"/></g>
<g><path style="opacity:1" fill="#bdc0cd" d="M 464.5,213.5 C 495.427,214.492 526.427,214.825 557.5,214.5C 540.008,215.497 522.341,215.83 504.5,215.5C 504.5,216.833 504.5,218.167 504.5,219.5C 504.5,220.833 504.5,222.167 504.5,223.5C 504.5,223.833 504.5,224.167 504.5,224.5C 494.102,224.899 483.768,224.399 473.5,223C 468.921,221.256 465.921,218.09 464.5,213.5 Z"/></g>
<g><path style="opacity:1" fill="#e3ebfb" d="M 575.5,224.5 C 705.834,224.333 836.167,224.5 966.5,225C 971.833,229.667 971.833,234.333 966.5,239C 830.167,239.667 693.833,239.667 557.5,239C 553.952,236.409 552.618,232.909 553.5,228.5C 554.962,227.542 556.295,226.376 557.5,225C 563.491,224.501 569.491,224.334 575.5,224.5 Z"/></g>
<g><path style="opacity:1" fill="#e2e4f0" d="M 504.5,322.5 C 504.5,366.5 504.5,410.5 504.5,454.5C 475.431,460.343 446.431,466.51 417.5,473C 420.564,474.859 423.564,476.692 426.5,478.5C 425.236,480.772 425.402,483.105 427,485.5C 428.964,487.432 431.131,489.099 433.5,490.5C 447.289,497.131 460.956,503.964 474.5,511C 476,511.833 477.167,513 478,514.5C 478.494,512.866 478.66,511.199 478.5,509.5C 480.413,530.546 482.747,551.546 485.5,572.5C 487.261,580.88 491.928,583.047 499.5,579C 501.037,577.293 502.704,575.793 504.5,574.5C 504.5,597.833 504.5,621.167 504.5,644.5C 483.262,696.36 462.095,748.36 441,800.5C 429.067,816.365 413.567,821.198 394.5,815C 326.28,787.767 258.28,760.267 190.5,732.5C 206.194,726.133 214.528,714.466 215.5,697.5C 203.95,624.927 191.45,552.594 178,480.5C 154.582,539.37 130.915,598.37 107,657.5C 100.025,676.107 104.192,691.607 119.5,704C 142.167,713.814 164.834,723.314 187.5,732.5C 125.033,743.912 62.366,754.912 -0.5,765.5C -0.5,597.167 -0.5,428.833 -0.5,260.5C 35.31,254.455 71.1433,248.455 107,242.5C 125.951,244.291 137.951,254.291 143,272.5C 154.403,340.916 166.236,409.25 178.5,477.5C 207.813,406.067 236.647,334.4 265,262.5C 276.562,245.089 292.395,239.589 312.5,246C 376.409,271.79 440.409,297.29 504.5,322.5 Z"/></g>
<g><path style="opacity:1" fill="#e3e5f1" d="M 1511.5,306.5 C 1511.5,467.5 1511.5,628.5 1511.5,789.5C 1501.79,791.413 1492.46,790.246 1483.5,786C 1415.61,755.889 1347.61,726.056 1279.5,696.5C 1216.06,721.387 1152.73,746.553 1089.5,772C 1070.36,775.677 1055.86,769.177 1046,752.5C 1033,719.833 1020,687.167 1007,654.5C 1006.5,543.501 1006.33,432.501 1006.5,321.5C 1059.35,300.047 1112.35,278.881 1165.5,258C 1185.26,253.47 1200.1,259.97 1210,277.5C 1239,350.167 1268,422.833 1297,495.5C 1326.59,429.315 1355.92,362.981 1385,296.5C 1394.03,276.069 1409.53,267.903 1431.5,272C 1458.07,283.788 1484.74,295.288 1511.5,306.5 Z"/></g>
<g><path style="opacity:1" fill="#e4ecfc" d="M 557.5,260.5 C 693.834,260.333 830.167,260.5 966.5,261C 971.833,265.667 971.833,270.333 966.5,275C 830.167,275.667 693.833,275.667 557.5,275C 552.214,270.169 552.214,265.335 557.5,260.5 Z"/></g>
<g><path style="opacity:1" fill="#5f83c6" d="M 560.5,313.5 C 562.924,313.192 565.257,313.526 567.5,314.5C 565.955,315.452 564.288,315.785 562.5,315.5C 562.785,317.288 562.452,318.955 561.5,320.5C 560.526,318.257 560.192,315.924 560.5,313.5 Z"/></g>
<g><path style="opacity:1" fill="#6587c8" d="M 579.5,313.5 C 583.884,313.174 588.217,313.508 592.5,314.5C 590.333,314.833 588.167,315.167 586,315.5C 583.39,315.467 581.223,314.8 579.5,313.5 Z"/></g>
<g><path style="opacity:1" fill="#5f83c6" d="M 604.5,313.5 C 608.555,313.176 612.555,313.509 616.5,314.5C 614.5,314.833 612.5,315.167 610.5,315.5C 608.048,315.461 606.048,314.794 604.5,313.5 Z"/></g>
<g><path style="opacity:1" fill="#5f83c6" d="M 629.5,313.5 C 633.555,313.176 637.555,313.509 641.5,314.5C 639.5,314.833 637.5,315.167 635.5,315.5C 633.048,315.461 631.048,314.794 629.5,313.5 Z"/></g>
<g><path style="opacity:1" fill="#5f83c6" d="M 654.5,313.5 C 658.555,313.176 662.555,313.509 666.5,314.5C 664.5,314.833 662.5,315.167 660.5,315.5C 658.048,315.461 656.048,314.794 654.5,313.5 Z"/></g>
<g><path style="opacity:1" fill="#6587c8" d="M 678.5,313.5 C 682.884,313.174 687.217,313.508 691.5,314.5C 689.333,314.833 687.167,315.167 685,315.5C 682.39,315.467 680.223,314.8 678.5,313.5 Z"/></g>
<g><path style="opacity:1" fill="#5f83c6" d="M 703.5,313.5 C 707.555,313.176 711.555,313.509 715.5,314.5C 713.5,314.833 711.5,315.167 709.5,315.5C 707.048,315.461 705.048,314.794 703.5,313.5 Z"/></g>
<g><path style="opacity:1" fill="#5f83c6" d="M 728.5,313.5 C 732.555,313.176 736.555,313.509 740.5,314.5C 738.5,314.833 736.5,315.167 734.5,315.5C 732.048,315.461 730.048,314.794 728.5,313.5 Z"/></g>
<g><path style="opacity:1" fill="#5f83c6" d="M 753.5,313.5 C 757.555,313.176 761.555,313.509 765.5,314.5C 763.5,314.833 761.5,315.167 759.5,315.5C 757.048,315.461 755.048,314.794 753.5,313.5 Z"/></g>
<g><path style="opacity:1" fill="#6587c8" d="M 777.5,313.5 C 781.884,313.174 786.217,313.508 790.5,314.5C 788.333,314.833 786.167,315.167 784,315.5C 781.39,315.467 779.223,314.8 777.5,313.5 Z"/></g>
<g><path style="opacity:1" fill="#5f83c6" d="M 802.5,313.5 C 804.833,313.5 807.167,313.5 809.5,313.5C 809.808,315.924 809.474,318.257 808.5,320.5C 807.548,318.955 807.215,317.288 807.5,315.5C 805.219,315.923 803.552,315.256 802.5,313.5 Z"/></g>
<g><path style="opacity:1" fill="#e4ecfc" d="M 846.5,317.5 C 886.501,317.333 926.501,317.5 966.5,318C 971.833,322.667 971.833,327.333 966.5,332C 926.5,332.667 886.5,332.667 846.5,332C 841.214,327.169 841.214,322.335 846.5,317.5 Z"/></g>
<g><path style="opacity:1" fill="#f1f2f5" d="M 578.5,203.5 C 580.5,203.5 582.5,203.5 584.5,203.5C 584.401,211.814 581.401,218.814 575.5,224.5C 569.491,224.334 563.491,224.501 557.5,225C 556.295,226.376 554.962,227.542 553.5,228.5C 537.5,228.5 521.5,228.5 505.5,228.5C 505.833,304.002 505.499,379.335 504.5,454.5C 504.5,410.5 504.5,366.5 504.5,322.5C 504.5,289.833 504.5,257.167 504.5,224.5C 504.5,224.167 504.5,223.833 504.5,223.5C 525.54,223.929 546.54,223.429 567.5,222C 575.648,218.542 579.315,212.375 578.5,203.5 Z"/></g>
<g><path style="opacity:1" fill="#5f83c6" d="M 560.5,331.5 C 561.787,332.871 562.453,334.705 562.5,337C 562.167,338.833 561.833,340.667 561.5,342.5C 560.511,338.893 560.177,335.226 560.5,331.5 Z"/></g>
<g><path style="opacity:1" fill="#aec1e2" d="M 780.5,331.5 C 781.833,348.153 782.5,365.153 782.5,382.5C 782.167,399.5 781.833,416.5 781.5,433.5C 780.5,399.507 780.167,365.507 780.5,331.5 Z"/></g>
<g><path style="opacity:1" fill="#5f83c6" d="M 807.5,331.5 C 808.787,332.871 809.453,334.705 809.5,337C 809.167,338.833 808.833,340.667 808.5,342.5C 807.511,338.893 807.177,335.226 807.5,331.5 Z"/></g>
<g><path style="opacity:1" fill="#cfdaed" d="M 700.5,332.5 C 723.5,332.5 746.5,332.5 769.5,332.5C 769.5,367.167 769.5,401.833 769.5,436.5C 746.5,436.5 723.5,436.5 700.5,436.5C 700.5,401.833 700.5,367.167 700.5,332.5 Z"/></g>
<g><path style="opacity:1" fill="#adbfe2" d="M 684.5,348.5 C 684.666,357.506 684.5,366.506 684,375.5C 683.283,374.956 682.783,374.289 682.5,373.5C 683.167,365.167 683.833,356.833 684.5,348.5 Z"/></g>
<g><path style="opacity:1" fill="#6084c6" d="M 684.5,348.5 C 687.833,348.5 691.167,348.5 694.5,348.5C 694.5,370.167 694.5,391.833 694.5,413.5C 691.167,413.5 687.833,413.5 684.5,413.5C 684.662,411.473 684.495,409.473 684,407.5C 676.62,414.94 668.12,416.44 658.5,412C 652.197,406.504 649.197,399.504 649.5,391C 650.294,374.198 658.961,366.865 675.5,369C 678.257,369.938 680.59,371.438 682.5,373.5C 682.783,374.289 683.283,374.956 684,375.5C 684.5,366.506 684.666,357.506 684.5,348.5 Z"/></g>
<g><path style="opacity:1" fill="#6386c7" d="M 709.5,349.5 C 714.713,348.762 717.713,350.928 718.5,356C 717.089,361.141 713.755,362.808 708.5,361C 704.95,357.043 705.283,353.21 709.5,349.5 Z"/></g>
<g><path style="opacity:1" fill="#5f83c6" d="M 636.5,386.5 C 629.167,386.5 621.833,386.5 614.5,386.5C 614.5,392.5 614.5,398.5 614.5,404.5C 623.652,405.494 632.985,405.827 642.5,405.5C 642.5,408.167 642.5,410.833 642.5,413.5C 629.5,413.5 616.5,413.5 603.5,413.5C 603.5,393.167 603.5,372.833 603.5,352.5C 616.167,352.5 628.833,352.5 641.5,352.5C 641.5,355.5 641.5,358.5 641.5,361.5C 632.5,361.5 623.5,361.5 614.5,361.5C 614.5,367.167 614.5,372.833 614.5,378.5C 621.833,378.5 629.167,378.5 636.5,378.5C 636.5,381.167 636.5,383.833 636.5,386.5 Z"/></g>
<g><path style="opacity:1" fill="#6285c7" d="M 560.5,353.5 C 561.787,354.871 562.453,356.705 562.5,359C 562.167,360.833 561.833,362.667 561.5,364.5C 560.511,360.893 560.177,357.226 560.5,353.5 Z"/></g>
<g><path style="opacity:1" fill="#6285c7" d="M 807.5,353.5 C 808.787,354.871 809.453,356.705 809.5,359C 809.167,360.833 808.833,362.667 808.5,364.5C 807.511,360.893 807.177,357.226 807.5,353.5 Z"/></g>
<g><path style="opacity:1" fill="#e4ecfc" d="M 846.5,354.5 C 886.501,354.333 926.501,354.5 966.5,355C 971.833,359.667 971.833,364.333 966.5,369C 926.5,369.667 886.5,369.667 846.5,369C 841.214,364.169 841.214,359.335 846.5,354.5 Z"/></g>
<g><path style="opacity:1" fill="#6083c6" d="M 732.5,359.5 C 735.833,359.5 739.167,359.5 742.5,359.5C 742.5,362.833 742.5,366.167 742.5,369.5C 745.5,369.5 748.5,369.5 751.5,369.5C 751.5,371.833 751.5,374.167 751.5,376.5C 748.167,376.5 744.833,376.5 741.5,376.5C 741.174,385.349 741.507,394.016 742.5,402.5C 742.804,403.15 743.137,403.817 743.5,404.5C 746.428,405.484 749.428,405.817 752.5,405.5C 752.813,408.247 752.48,410.914 751.5,413.5C 745.953,415.132 740.619,414.632 735.5,412C 733.84,410.512 732.84,408.679 732.5,406.5C 732.5,396.5 732.5,386.5 732.5,376.5C 730.5,376.5 728.5,376.5 726.5,376.5C 726.5,374.167 726.5,371.833 726.5,369.5C 728.5,369.5 730.5,369.5 732.5,369.5C 732.5,366.167 732.5,362.833 732.5,359.5 Z"/></g>
<g><path style="opacity:1" fill="#5f83c6" d="M 707.5,369.5 C 710.833,369.5 714.167,369.5 717.5,369.5C 717.5,384.167 717.5,398.833 717.5,413.5C 714.167,413.5 710.833,413.5 707.5,413.5C 707.5,398.833 707.5,384.167 707.5,369.5 Z"/></g>
<g><path style="opacity:1" fill="#6587c8" d="M 560.5,375.5 C 561.794,377.048 562.461,379.048 562.5,381.5C 562.167,383.5 561.833,385.5 561.5,387.5C 560.509,383.555 560.176,379.555 560.5,375.5 Z"/></g>
<g><path style="opacity:1" fill="#fbfbfd" d="M 667.5,376.5 C 675.582,375.115 681.082,378.115 684,385.5C 686.214,394.203 683.714,401.037 676.5,406C 668.761,407.716 663.595,404.883 661,397.5C 658.76,388.915 660.927,381.915 667.5,376.5 Z"/></g>
<g><path style="opacity:1" fill="#6587c8" d="M 807.5,375.5 C 808.794,377.048 809.461,379.048 809.5,381.5C 809.167,383.5 808.833,385.5 808.5,387.5C 807.509,383.555 807.176,379.555 807.5,375.5 Z"/></g>
<g><path style="opacity:1" fill="#809cd1" d="M 732.5,359.5 C 732.5,362.833 732.5,366.167 732.5,369.5C 730.5,369.5 728.5,369.5 726.5,369.5C 726.5,371.833 726.5,374.167 726.5,376.5C 728.5,376.5 730.5,376.5 732.5,376.5C 732.5,386.5 732.5,396.5 732.5,406.5C 731.506,397.014 731.173,387.348 731.5,377.5C 729.5,377.5 727.5,377.5 725.5,377.5C 725.5,374.5 725.5,371.5 725.5,368.5C 727.5,368.5 729.5,368.5 731.5,368.5C 731.19,365.287 731.523,362.287 732.5,359.5 Z"/></g>
<g><path style="opacity:1" fill="#819cd1" d="M 751.5,376.5 C 748.713,377.477 745.713,377.81 742.5,377.5C 742.5,385.833 742.5,394.167 742.5,402.5C 741.507,394.016 741.174,385.349 741.5,376.5C 744.833,376.5 748.167,376.5 751.5,376.5 Z"/></g>
<g><path style="opacity:1" fill="#a0b5dd" d="M 636.5,386.5 C 629.687,387.491 622.687,387.825 615.5,387.5C 615.5,393.167 615.5,398.833 615.5,404.5C 615.167,404.5 614.833,404.5 614.5,404.5C 614.5,398.5 614.5,392.5 614.5,386.5C 621.833,386.5 629.167,386.5 636.5,386.5 Z"/></g>
<g><path style="opacity:1" fill="#e4ecfc" d="M 846.5,391.5 C 886.501,391.333 926.501,391.5 966.5,392C 971.833,396.667 971.833,401.333 966.5,406C 926.5,406.667 886.5,406.667 846.5,406C 841.214,401.169 841.214,396.335 846.5,391.5 Z"/></g>
<g><path style="opacity:1" fill="#6285c7" d="M 560.5,398.5 C 561.787,399.871 562.453,401.705 562.5,404C 562.167,405.833 561.833,407.667 561.5,409.5C 560.511,405.893 560.177,402.226 560.5,398.5 Z"/></g>
<g><path style="opacity:1" fill="#6285c7" d="M 807.5,398.5 C 808.787,399.871 809.453,401.705 809.5,404C 809.167,405.833 808.833,407.667 808.5,409.5C 807.511,405.893 807.177,402.226 807.5,398.5 Z"/></g>
<g><path style="opacity:1" fill="#95acd9" d="M 614.5,404.5 C 614.833,404.5 615.167,404.5 615.5,404.5C 624.833,404.5 634.167,404.5 643.5,404.5C 643.5,407.833 643.5,411.167 643.5,414.5C 629.99,414.829 616.656,414.496 603.5,413.5C 616.5,413.5 629.5,413.5 642.5,413.5C 642.5,410.833 642.5,408.167 642.5,405.5C 632.985,405.827 623.652,405.494 614.5,404.5 Z"/></g>
<g><path style="opacity:1" fill="#5f83c6" d="M 560.5,420.5 C 561.787,421.871 562.453,423.705 562.5,426C 562.167,427.833 561.833,429.667 561.5,431.5C 560.511,427.893 560.177,424.226 560.5,420.5 Z"/></g>
<g><path style="opacity:1" fill="#5f83c6" d="M 807.5,420.5 C 808.787,421.871 809.453,423.705 809.5,426C 809.167,427.833 808.833,429.667 808.5,431.5C 807.511,427.893 807.177,424.226 807.5,420.5 Z"/></g>
<g><path style="opacity:1" fill="#e4ecfc" d="M 846.5,428.5 C 886.501,428.333 926.501,428.5 966.5,429C 971.833,433.667 971.833,438.333 966.5,443C 926.5,443.667 886.5,443.667 846.5,443C 841.214,438.169 841.214,433.335 846.5,428.5 Z"/></g>
<g><path style="opacity:1" fill="#5f83c6" d="M 807.5,442.5 C 809.344,444.279 810.01,446.612 809.5,449.5C 807.076,449.808 804.743,449.474 802.5,448.5C 804.045,447.548 805.712,447.215 807.5,447.5C 807.5,445.833 807.5,444.167 807.5,442.5 Z"/></g>
<g><path style="opacity:1" fill="#6084c6" d="M 561.5,445.5 C 563.355,445.272 564.188,445.939 564,447.5C 538.419,484.994 513.086,522.661 488,560.5C 486.081,540.818 484.081,521.151 482,501.5C 464.755,492.794 447.588,483.961 430.5,475C 474.294,465.476 517.96,455.643 561.5,445.5 Z"/></g>
<g><path style="opacity:1" fill="#e3e3e4" d="M 569.5,447.5 C 576.475,448.452 578.308,452.119 575,458.5C 552.581,492.339 529.914,526.006 507,559.5C 505.798,561.677 505.298,564.011 505.5,566.5C 505.737,567.791 505.404,568.791 504.5,569.5C 504.5,566.5 504.5,563.5 504.5,560.5C 504.5,560.167 504.5,559.833 504.5,559.5C 527.805,526.245 550.639,492.579 573,458.5C 575.881,452.596 574.048,449.929 567.5,450.5C 567.932,449.29 568.599,448.29 569.5,447.5 Z"/></g>
<g><path style="opacity:1" fill="#6385c5" d="M 583.5,447.5 C 595.5,448.167 595.5,448.833 583.5,449.5C 578.167,448.833 578.167,448.167 583.5,447.5 Z"/></g>
<g><path style="opacity:1" fill="#5f83c6" d="M 604.5,447.5 C 608.555,447.176 612.555,447.509 616.5,448.5C 614.5,448.833 612.5,449.167 610.5,449.5C 608.048,449.461 606.048,448.794 604.5,447.5 Z"/></g>
<g><path style="opacity:1" fill="#5f83c6" d="M 629.5,447.5 C 633.555,447.176 637.555,447.509 641.5,448.5C 639.5,448.833 637.5,449.167 635.5,449.5C 633.048,449.461 631.048,448.794 629.5,447.5 Z"/></g>
<g><path style="opacity:1" fill="#5f83c6" d="M 654.5,447.5 C 658.555,447.176 662.555,447.509 666.5,448.5C 664.5,448.833 662.5,449.167 660.5,449.5C 658.048,449.461 656.048,448.794 654.5,447.5 Z"/></g>
<g><path style="opacity:1" fill="#6587c8" d="M 678.5,447.5 C 682.884,447.174 687.217,447.508 691.5,448.5C 689.333,448.833 687.167,449.167 685,449.5C 682.39,449.467 680.223,448.8 678.5,447.5 Z"/></g>
<g><path style="opacity:1" fill="#5f83c6" d="M 703.5,447.5 C 707.555,447.176 711.555,447.509 715.5,448.5C 713.5,448.833 711.5,449.167 709.5,449.5C 707.048,449.461 705.048,448.794 703.5,447.5 Z"/></g>
<g><path style="opacity:1" fill="#5f83c6" d="M 728.5,447.5 C 732.555,447.176 736.555,447.509 740.5,448.5C 738.5,448.833 736.5,449.167 734.5,449.5C 732.048,449.461 730.048,448.794 728.5,447.5 Z"/></g>
<g><path style="opacity:1" fill="#5f83c6" d="M 753.5,447.5 C 757.555,447.176 761.555,447.509 765.5,448.5C 763.5,448.833 761.5,449.167 759.5,449.5C 757.048,449.461 755.048,448.794 753.5,447.5 Z"/></g>
<g><path style="opacity:1" fill="#6587c8" d="M 777.5,447.5 C 781.884,447.174 786.217,447.508 790.5,448.5C 788.333,448.833 786.167,449.167 784,449.5C 781.39,449.467 779.223,448.8 777.5,447.5 Z"/></g>
<g><path style="opacity:1" fill="#d4d4d4" d="M 567.5,450.5 C 574.048,449.929 575.881,452.596 573,458.5C 550.639,492.579 527.805,526.245 504.5,559.5C 504.616,556.14 504.949,552.807 505.5,549.5C 526.075,519.75 546.075,489.583 565.5,459C 565.361,457.699 564.695,456.866 563.5,456.5C 564.475,454.205 565.808,452.205 567.5,450.5 Z"/></g>
<g><path style="opacity:1" fill="#cccccc" d="M 563.5,456.5 C 564.695,456.866 565.361,457.699 565.5,459C 546.075,489.583 526.075,519.75 505.5,549.5C 505.5,547.5 505.5,545.5 505.5,543.5C 524.092,513.976 543.425,484.976 563.5,456.5 Z"/></g>
<g><path style="opacity:1" fill="#e3ebfb" d="M 568.5,478.5 C 701.167,478.333 833.834,478.5 966.5,479C 971.833,483.667 971.833,488.333 966.5,493C 832.833,493.667 699.167,493.667 565.5,493C 563.959,491.629 562.625,490.129 561.5,488.5C 561.5,487.5 561.5,486.5 561.5,485.5C 562.167,481.5 564.5,479.167 568.5,478.5 Z"/></g>
<g><path style="opacity:1" fill="#dbdfee" d="M 190.5,732.5 C 189.5,732.5 188.5,732.5 187.5,732.5C 164.834,723.314 142.167,713.814 119.5,704C 104.192,691.607 100.025,676.107 107,657.5C 130.915,598.37 154.582,539.37 178,480.5C 191.45,552.594 203.95,624.927 215.5,697.5C 214.528,714.466 206.194,726.133 190.5,732.5 Z"/></g>
<g><path style="opacity:1" fill="#eeeeee" d="M 583.5,447.5 C 578.167,448.167 578.167,448.833 583.5,449.5C 583.662,451.527 583.495,453.527 583,455.5C 578.158,463.19 573.324,470.857 568.5,478.5C 564.5,479.167 562.167,481.5 561.5,485.5C 542.587,512.326 523.92,539.326 505.5,566.5C 505.298,564.011 505.798,561.677 507,559.5C 529.914,526.006 552.581,492.339 575,458.5C 578.308,452.119 576.475,448.452 569.5,447.5C 570.228,445.265 571.561,443.432 573.5,442C 578.415,441.127 581.748,442.96 583.5,447.5 Z"/></g>
<g><path style="opacity:1" fill="#d1d3dd" d="M 426.5,478.5 C 443.757,486.462 460.757,494.962 477.5,504C 478.406,505.699 478.739,507.533 478.5,509.5C 478.66,511.199 478.494,512.866 478,514.5C 477.167,513 476,511.833 474.5,511C 460.956,503.964 447.289,497.131 433.5,490.5C 431.131,489.099 428.964,487.432 427,485.5C 425.402,483.105 425.236,480.772 426.5,478.5 Z"/></g>
<g><path style="opacity:1" fill="#dbdfee" d="M 1296.5,496.5 C 1315.99,541.581 1334.49,587.248 1352,633.5C 1354.79,649.89 1349.62,663.056 1336.5,673C 1317.89,681.091 1299.06,688.591 1280,695.5C 1269.27,691.588 1258.77,687.088 1248.5,682C 1236.3,672.422 1231.13,659.922 1233,644.5C 1235.06,638.058 1237.39,631.725 1240,625.5C 1259.4,582.713 1278.23,539.713 1296.5,496.5 Z"/></g>
<g><path style="opacity:1" fill="#e4ecfc" d="M 565.5,515.5 C 699.167,515.333 832.834,515.5 966.5,516C 971.833,520.667 971.833,525.333 966.5,530C 832.833,530.667 699.167,530.667 565.5,530C 560.214,525.169 560.214,520.335 565.5,515.5 Z"/></g>
<g><path style="opacity:1" fill="#bcbec7" d="M 505.5,543.5 C 505.5,545.5 505.5,547.5 505.5,549.5C 504.949,552.807 504.616,556.14 504.5,559.5C 504.5,559.833 504.5,560.167 504.5,560.5C 502.864,561.749 501.697,563.416 501,565.5C 496.214,571.343 493.047,570.676 491.5,563.5C 495.81,556.534 500.477,549.867 505.5,543.5 Z"/></g>
<g><path style="opacity:1" fill="#e4ecfc" d="M 565.5,552.5 C 699.167,552.333 832.834,552.5 966.5,553C 971.833,557.667 971.833,562.333 966.5,567C 832.833,567.667 699.167,567.667 565.5,567C 560.214,562.169 560.214,557.335 565.5,552.5 Z"/></g>
<g><path style="opacity:1" fill="#d6d8e4" d="M 504.5,560.5 C 504.5,563.5 504.5,566.5 504.5,569.5C 504.5,571.167 504.5,572.833 504.5,574.5C 502.704,575.793 501.037,577.293 499.5,579C 491.928,583.047 487.261,580.88 485.5,572.5C 487.533,569.477 489.533,566.477 491.5,563.5C 493.047,570.676 496.214,571.343 501,565.5C 501.697,563.416 502.864,561.749 504.5,560.5 Z"/></g>
<g><path style="opacity:1" fill="#e4ecfc" d="M 565.5,589.5 C 619.834,589.333 674.168,589.5 728.5,590C 733.833,594.667 733.833,599.333 728.5,604C 674.167,604.667 619.833,604.667 565.5,604C 560.214,599.169 560.214,594.335 565.5,589.5 Z"/></g>
<g><path style="opacity:1" fill="#e3ebfb" d="M 842.5,759.5 C 813.628,733.795 784.295,708.628 754.5,684C 751.036,683.183 747.702,683.517 744.5,685C 720.833,706 697.167,727 673.5,748C 670.443,750.723 667.11,753.056 663.5,755C 660.217,755.743 657.217,755.076 654.5,753C 640.471,738.637 626.138,724.637 611.5,711C 606.899,708.708 602.566,709.042 598.5,712C 583.633,727.699 568.633,743.199 553.5,758.5C 553.333,721.832 553.5,685.165 554,648.5C 555.5,644.333 558.333,641.5 562.5,640C 652.5,639.333 742.5,639.333 832.5,640C 837.206,641.105 840.373,643.938 842,648.5C 842.5,685.498 842.667,722.498 842.5,759.5 Z"/></g>
<g><path style="opacity:1" fill="#e3ebfb" d="M 884.5,639.5 C 909.169,639.333 933.836,639.5 958.5,640C 963.737,640.9 967.571,643.734 970,648.5C 970.667,696.5 970.667,744.5 970,792.5C 968.5,796.667 965.667,799.5 961.5,801C 935.5,801.667 909.5,801.667 883.5,801C 879.333,799.5 876.5,796.667 875,792.5C 874.333,744.5 874.333,696.5 875,648.5C 877.406,644.592 880.572,641.592 884.5,639.5 Z"/></g>
<g><path style="opacity:1" fill="#f4f4f8" d="M 561.5,485.5 C 561.5,486.5 561.5,487.5 561.5,488.5C 543.254,515.929 524.754,543.263 506,570.5C 505.5,652.166 505.333,733.833 505.5,815.5C 504.501,758.669 504.168,701.669 504.5,644.5C 504.5,621.167 504.5,597.833 504.5,574.5C 504.5,572.833 504.5,571.167 504.5,569.5C 505.404,568.791 505.737,567.791 505.5,566.5C 523.92,539.326 542.587,512.326 561.5,485.5 Z"/></g>
<g><path style="opacity:1" fill="#ebebf4" d="M 1005.5,191.5 C 1006.5,234.663 1006.83,277.997 1006.5,321.5C 1006.33,432.501 1006.5,543.501 1007,654.5C 1020,687.167 1033,719.833 1046,752.5C 1055.86,769.177 1070.36,775.677 1089.5,772C 1152.73,746.553 1216.06,721.387 1279.5,696.5C 1347.61,726.056 1415.61,755.889 1483.5,786C 1492.46,790.246 1501.79,791.413 1511.5,789.5C 1511.5,862.167 1511.5,934.833 1511.5,1007.5C 1007.5,1007.5 503.5,1007.5 -0.5,1007.5C -0.5,926.833 -0.5,846.167 -0.5,765.5C 62.366,754.912 125.033,743.912 187.5,732.5C 188.5,732.5 189.5,732.5 190.5,732.5C 258.28,760.267 326.28,787.767 394.5,815C 413.567,821.198 429.067,816.365 441,800.5C 462.095,748.36 483.262,696.36 504.5,644.5C 504.168,701.669 504.501,758.669 505.5,815.5C 508.544,831.409 517.877,841.576 533.5,846C 681.5,846.667 829.5,846.667 977.5,846C 991.568,842.265 1000.74,833.432 1005,819.5C 1005.5,610.167 1005.67,400.834 1005.5,191.5 Z"/></g>
<g><path style="opacity:1" fill="#6084c6" d="M 662.5,675.5 C 682.348,676.54 688.515,686.206 681,704.5C 673.944,710.889 666.11,712.056 657.5,708C 648.947,700.746 647.447,692.246 653,682.5C 655.825,679.524 658.992,677.191 662.5,675.5 Z"/></g>
<g><path style="opacity:1" fill="#5f83c6" d="M 842.5,759.5 C 842.733,769.865 842.4,780.198 841.5,790.5C 839.58,793.762 837.246,796.762 834.5,799.5C 833.078,799.709 831.745,800.209 830.5,801C 741.833,801.667 653.167,801.667 564.5,801C 559.187,798.008 555.687,793.508 554,787.5C 553.5,777.839 553.334,768.172 553.5,758.5C 568.633,743.199 583.633,727.699 598.5,712C 602.566,709.042 606.899,708.708 611.5,711C 626.138,724.637 640.471,738.637 654.5,753C 657.217,755.076 660.217,755.743 663.5,755C 667.11,753.056 670.443,750.723 673.5,748C 697.167,727 720.833,706 744.5,685C 747.702,683.517 751.036,683.183 754.5,684C 784.295,708.628 813.628,733.795 842.5,759.5 Z"/></g>
<g><path style="opacity:1" fill="#6688c8" d="M 919.5,707.5 C 921.167,707.5 922.833,707.5 924.5,707.5C 924.5,711.167 924.5,714.833 924.5,718.5C 927.833,718.5 931.167,718.5 934.5,718.5C 934.5,720.167 934.5,721.833 934.5,723.5C 931.167,723.5 927.833,723.5 924.5,723.5C 924.5,726.833 924.5,730.167 924.5,733.5C 922.833,733.5 921.167,733.5 919.5,733.5C 919.5,730.167 919.5,726.833 919.5,723.5C 916.167,723.5 912.833,723.5 909.5,723.5C 909.5,721.833 909.5,720.167 909.5,718.5C 912.833,718.5 916.167,718.5 919.5,718.5C 919.5,714.833 919.5,711.167 919.5,707.5 Z"/></g>
<g><path style="opacity:1" fill="#d6e1f6" d="M 841.5,790.5 C 841.067,794.938 838.733,797.938 834.5,799.5C 837.246,796.762 839.58,793.762 841.5,790.5 Z"/></g>
</svg>
