<svg xmlns="http://www.w3.org/2000/svg" fill="none" viewBox="0 0 548 480" height="480" width="548">
<rect fill="white" rx="13" height="480" width="548"></rect>
<path fill="#ACEBC3" d="M283.518 58.9944C321.148 52.9297 358.762 75.5801 387.503 100.46C414.23 123.598 422.439 159.461 436.78 191.669C450.93 223.448 470.979 253.232 471 287.981C471.023 325.6 465.738 368.853 436.902 393.237C408.203 417.506 364.674 404.348 327.339 409.464C296.443 413.698 266.938 426.87 236.371 420.717C204.265 414.254 177.19 395.293 152.23 374.217C123.637 350.073 91.1345 326.101 81.6171 290.04C71.7643 252.708 77.5116 209.284 100.487 178.163C122.538 148.295 167.985 151.117 199.169 130.813C230.78 110.232 246.21 65.0072 283.518 58.9944Z" clip-rule="evenodd" fill-rule="evenodd"></path>
<path fill="#F4FFF8" d="M466.597 337.865C468.747 327.62 469.935 317.013 470.52 306.53H466.597V337.865ZM471 287.981C471.003 293.785 470.881 299.723 470.564 305.705H466.597V273.559H469.869C470.596 278.281 470.997 283.081 471 287.981ZM465.773 273.559V305.705H433.627V273.559H465.773ZM433.627 338.676V306.53H465.773V338.676H433.627ZM432.802 338.676V306.53H400.656V338.676H432.802ZM400.656 339.5H432.802V371.647H400.656V339.5ZM400.656 372.471H432.802V396.387C427.395 400.152 421.538 402.787 415.355 404.617H400.656V372.471ZM399.832 404.617V372.471H367.685V404.617H399.832ZM367.685 405.442H399.832V407.647C389.513 408.808 378.643 408.655 367.685 408.415V405.442ZM366.861 404.617V372.471H334.715V404.617H366.861ZM334.715 405.442H366.861V408.397L365.376 408.364H365.376C355.077 408.132 344.729 407.9 334.715 408.681V405.442ZM333.89 404.617V372.471H301.744V404.617H333.89ZM301.744 405.442H333.89V408.748C331.689 408.933 329.504 409.168 327.339 409.464C318.717 410.646 310.203 412.524 301.744 414.483V405.442ZM300.92 404.617V372.471H268.773V404.617H300.92ZM268.773 405.442H300.92V414.674C299.917 414.907 298.916 415.141 297.915 415.374C288.166 417.649 278.479 419.909 268.773 421.209V405.442ZM267.949 404.617V372.471H235.802V404.617H267.949ZM235.802 405.442H267.949V421.317C257.483 422.659 246.991 422.854 236.371 420.717C236.181 420.678 235.992 420.64 235.802 420.601V405.442ZM234.978 404.617V372.471H202.832V404.617H234.978ZM202.832 405.442H234.978V420.428C223.683 418.017 213.01 414.063 202.832 409.025V405.442ZM202.007 404.617V372.471H169.861V388.325C177.795 394.27 185.986 399.798 194.517 404.617H202.007ZM195.992 405.442H202.007V408.614C199.983 407.598 197.979 406.539 195.992 405.442ZM400.656 405.442H412.339C408.547 406.395 404.644 407.074 400.656 407.552V405.442ZM399.832 339.5V371.647H367.685V339.5H399.832ZM366.861 339.5V371.647H334.715V339.5H366.861ZM333.89 339.5V371.647H301.744V339.5H333.89ZM300.92 339.5V371.647H268.773V339.5H300.92ZM267.949 339.5V371.647H235.802V339.5H267.949ZM234.978 339.5V371.647H202.832V339.5H234.978ZM202.007 339.5V371.647H169.861V339.5H202.007ZM169.037 339.5V371.647H149.173C147.347 370.118 145.509 368.587 143.666 367.053L143.658 367.046L143.655 367.044L143.653 367.042L143.651 367.04C141.4 365.167 139.143 363.287 136.89 361.396V339.5H169.037ZM169.037 372.471H150.156C150.85 373.053 151.541 373.635 152.23 374.217C157.72 378.852 163.312 383.385 169.037 387.706V372.471ZM454.013 372.471H433.627V395.802C434.738 394.997 435.831 394.144 436.902 393.237C443.909 387.312 449.525 380.273 454.013 372.471ZM433.627 371.647H454.481C459.637 362.46 463.261 352.248 465.773 341.572V339.5H433.627V371.647ZM399.832 338.676V306.53H367.685V338.676H399.832ZM366.861 338.676V306.53H334.715V338.676H366.861ZM333.89 338.676V306.53H301.744V338.676H333.89ZM300.92 338.676V306.53H268.773V338.676H300.92ZM267.949 338.676V306.53H235.802V338.676H267.949ZM234.978 338.676V306.53H202.832V338.676H234.978ZM202.007 338.676V306.53H169.861V338.676H202.007ZM169.037 338.676V306.53H136.89V338.676H169.037ZM136.066 338.676V306.53H103.92V330.15C106.425 333.062 109.056 335.899 111.782 338.676H136.066ZM112.596 339.5H136.066V360.703C127.966 353.886 119.949 346.907 112.596 339.5ZM432.802 273.559V305.705H400.656V273.559H432.802ZM399.832 273.559V305.705H367.685V273.559H399.832ZM366.861 273.559V305.705H334.715V273.559H366.861ZM333.89 273.559V305.705H301.744V273.559H333.89ZM300.92 273.559V305.705H268.773V273.559H300.92ZM267.949 273.559V305.705H235.802V273.559H267.949ZM234.978 273.559V305.705H202.832V273.559H234.978ZM202.007 273.559V305.705H169.861V273.559H202.007ZM169.037 273.559V305.705H136.89V273.559H169.037ZM136.066 273.559V305.705H103.92V273.559H136.066ZM103.095 329.184V306.53H87.8696C91.9192 314.649 97.1343 322.137 103.095 329.184ZM103.095 273.559V305.705H87.4636C85.0457 300.735 83.0653 295.528 81.6171 290.04C80.1958 284.655 79.0991 279.143 78.3319 273.559H103.095ZM466.597 272.735H469.739C468.983 268.072 467.912 263.486 466.597 258.957V272.735ZM465.773 272.735H433.627V240.588H459.987C462.156 245.747 464.122 250.949 465.773 256.225V272.735ZM432.802 272.735V240.588H400.656V272.735H432.802ZM399.832 272.735V240.588H367.685V272.735H399.832ZM366.861 272.735V240.588H334.715V272.735H366.861ZM333.89 272.735V240.588H301.744V272.735H333.89ZM300.92 272.735V240.588H268.773V272.735H300.92ZM267.949 272.735V240.588H235.802V272.735H267.949ZM234.978 272.735V240.588H202.832V272.735H234.978ZM202.007 272.735V240.588H169.861V272.735H202.007ZM169.037 272.735V240.588H136.89V272.735H169.037ZM136.066 272.735V240.588H103.92V272.735H136.066ZM103.095 272.735V240.588H77.6298C76.6207 251.3 76.8289 262.141 78.2211 272.735H103.095ZM447.371 213.781C451.657 222.421 455.93 231.033 459.639 239.764H433.627V207.617H444.322C445.334 209.675 446.353 211.729 447.371 213.781ZM432.802 207.617V239.764H400.656V207.617H432.802ZM399.832 207.617V239.764H367.685V207.617H399.832ZM366.861 207.617V239.764H334.715V207.617H366.861ZM333.89 207.617V239.764H301.744V207.617H333.89ZM300.92 207.617V239.764H268.773V207.617H300.92ZM267.949 207.617V239.764H235.802V207.617H267.949ZM234.978 207.617V239.764H202.832V207.617H234.978ZM202.007 207.617V239.764H169.861V207.617H202.007ZM169.037 207.617V239.764H136.89V207.617H169.037ZM136.066 207.617V239.764H103.92V207.617H136.066ZM103.095 207.617V239.764H77.7098C78.8106 228.767 81.1969 217.916 84.9046 207.617H103.095ZM433.627 206.793H443.917C441.458 201.784 439.044 196.752 436.78 191.669C435.698 189.237 434.65 186.785 433.627 184.319V206.793ZM432.802 206.793H400.656V174.647H429.736C430.743 177.211 431.761 179.771 432.802 182.318V206.793ZM399.832 206.793V174.647H367.685V206.793H399.832ZM366.861 206.793V174.647H334.715V206.793H366.861ZM333.89 206.793V174.647H301.744V206.793H333.89ZM300.92 206.793V174.647H268.773V206.793H300.92ZM267.949 206.793V174.647H235.802V206.793H267.949ZM234.978 206.793V174.647H202.832V206.793H234.978ZM202.007 206.793V174.647H169.861V206.793H202.007ZM169.037 206.793V174.647H136.89V206.793H169.037ZM136.066 206.793V174.647H103.92V206.793H136.066ZM103.095 206.793V174.902C102.194 175.944 101.324 177.03 100.487 178.163C94.0543 186.877 88.9721 196.555 85.2046 206.793H103.095ZM427.039 167.727C427.828 169.759 428.617 171.792 429.412 173.823H400.656V141.676H416.337C420.207 150.128 423.618 158.915 427.038 167.726L427.039 167.727ZM399.832 141.676V173.823H367.685V141.676H399.832ZM366.861 141.676V173.823H334.715V141.676H366.861ZM333.89 141.676V173.823H301.744V141.676H333.89ZM300.92 141.676V173.823H268.773V141.676H300.92ZM267.949 141.676V173.823H235.802V141.676H267.949ZM234.978 141.676V173.823H202.832V141.676H234.978ZM202.007 141.676V173.823H169.861V143.843C172.018 143.15 174.162 142.432 176.286 141.676H202.007ZM169.037 144.107V173.823H136.89V154.037C143.204 151.789 149.777 149.861 156.386 147.921L156.386 147.921C160.607 146.683 164.844 145.44 169.037 144.107ZM136.066 154.332V173.823H104.055C112.617 164.446 123.833 158.759 136.066 154.332ZM415.958 140.852C411.648 131.536 406.758 122.642 400.656 114.59V140.852H415.958ZM399.832 140.852V113.516C398.554 111.875 397.223 110.27 395.835 108.706H367.685V140.852H399.832ZM366.861 140.852V108.706H334.715V140.852H366.861ZM333.89 140.852V108.706H301.744V140.852H333.89ZM300.92 140.852V108.706H268.773V140.852H300.92ZM267.949 140.852V108.706H235.802V140.852H267.949ZM234.978 140.852V108.706H223.121C216.867 115.931 210.291 122.767 202.832 128.27V140.852H234.978ZM202.007 140.852V128.87C201.075 129.54 200.13 130.188 199.169 130.813C192.787 134.969 185.807 138.155 178.553 140.852H202.007ZM387.503 100.46C390.216 102.809 392.737 105.288 395.094 107.881H367.685V84.8882C374.647 89.7955 381.283 95.0757 387.503 100.46ZM366.861 84.31V107.881H334.715V75.7346H353.498C358.062 78.4025 362.524 81.2824 366.861 84.31ZM333.89 75.7346V107.881H301.744V75.7346H333.89ZM300.92 75.7346V107.881H268.773V75.7346H300.92ZM267.949 75.7346V107.881H235.802V93.4907C241.054 87.1726 246.355 81.0509 252.07 75.7346H267.949ZM234.978 94.4843V107.881H223.831C226.579 104.682 229.269 101.414 231.949 98.1576L231.95 98.1566C232.96 96.9293 233.968 95.7037 234.978 94.4843ZM352.073 74.9104C346.426 71.6796 340.626 68.7806 334.715 66.3331V74.9104H352.073ZM333.89 74.9104V65.9951C323.445 61.7529 312.656 58.933 301.744 58.1935V74.9104H333.89ZM300.92 74.9104V58.1417C295.141 57.806 289.33 58.0577 283.518 58.9944C278.194 59.8524 273.316 61.5087 268.773 63.778V74.9104H300.92ZM267.949 74.9104V64.1983C262.546 67.0096 257.615 70.6872 252.966 74.9104H267.949Z" clip-rule="evenodd" fill-rule="evenodd"></path>
<g clip-path="url(#clip0_1095_2397)">
<rect fill="#F4FFF8" transform="translate(111 193.854) rotate(-19.0031)" height="36.4023" width="36.4023"></rect>
<mask height="48" width="48" y="181" x="110" maskUnits="userSpaceOnUse" style="mask-type:luminance" id="mask0_1095_2397">
<path fill="white" d="M110.996 193.853L145.415 181.999L157.268 216.418L122.849 228.271L110.996 193.853Z"></path>
</mask>
<g mask="url(#mask0_1095_2397)">
<path fill="#FB9378" d="M118.281 191.344L119.833 190.809L120.361 192.342L121.781 191.853L121.253 190.32L122.804 189.786L124.403 194.427L122.851 194.961L122.316 193.408L120.896 193.897L121.431 195.45L119.881 195.984L118.281 191.344ZM125.374 190.623L124.008 191.093L123.478 189.554L127.762 188.079L128.292 189.617L126.925 190.088L127.994 193.19L126.442 193.724L125.374 190.623ZM128.442 187.845L130.06 187.287L131.616 188.575L132.049 186.602L133.666 186.045L135.265 190.686L133.72 191.218L132.928 188.918L132.429 190.936L132.402 190.945L130.766 189.664L131.557 191.963L130.04 192.485L128.442 187.845ZM134.438 185.78L135.991 185.245L137.061 188.352L139.241 187.602L139.77 189.136L136.037 190.422L134.438 185.78Z"></path>
<path fill="#FB9378" d="M129.134 223.014L117.629 199.136L143.443 190.246L149.078 216.143L140.045 222.349L129.134 223.014ZM130.375 207.347L129.021 204.316L140.701 200.294L139.923 197.148L124.635 202.413L128.638 211.361L139.217 207.717L140.226 211.797L137.138 213.891L137.136 213.892L133.421 214.144L132.364 211.786L129.298 212.842L131.376 217.487L138.227 217.069L143.892 213.177L141.709 204.361L141.502 203.517L130.376 207.348L130.375 207.347Z" clip-rule="evenodd" fill-rule="evenodd"></path>
</g>
</g>
<g clip-path="url(#clip1_1095_2397)">
<rect fill="#F4FFF8" transform="rotate(11.0764 341.049 316)" rx="20.1092" height="41.8942" width="40.2184" y="316" x="341.049"></rect>
<path fill="#72C2F1" d="M353.668 321.886L357.378 322.612L357.074 324.163L354.916 323.741L354.612 325.292L356.77 325.714L356.467 327.266L352.757 326.539L353.668 321.886ZM358.119 322.757L361.83 323.484L361.566 324.833L359.407 324.411L359.354 324.68L361.513 325.102L360.906 328.205L357.194 327.478L357.472 326.062L359.63 326.485L359.683 326.214L357.525 325.792L358.119 322.757ZM362.572 323.629L366.281 324.355L366.016 325.705L363.858 325.282L363.805 325.551L365.964 325.974L365.356 329.076L361.648 328.35L361.925 326.934L364.084 327.357L364.137 327.086L361.978 326.664L362.572 323.629Z"></path>
<path fill="#72C2F1" d="M353.367 357.686L343.918 352.955L345.861 327.405L371.763 332.476L363.93 356.87L353.367 357.686ZM349.472 339.85L349.147 342.966L359.763 345.044L358.63 348.946L355.033 349.201L355.03 349.201L351.8 347.612L352.059 345.127L348.984 344.525L348.471 349.418L354.404 352.388L361.029 351.877L363.475 343.444L363.711 342.637L365.477 336.545L350.135 333.541L349.814 336.66L361.522 338.952L360.628 342.034L349.472 339.85Z" clip-rule="evenodd" fill-rule="evenodd"></path>
</g>
<rect fill="#F4FFF8" transform="translate(208 140.445) rotate(-14.7259)" height="38.1475" width="33.2253"></rect>
<path fill="#7EE9A5" d="M225.004 139.794L238.685 141.013L241.411 151.386C242.807 156.697 240.617 161.242 238.27 164.323C236.851 166.169 235.191 167.807 233.337 169.19C233.305 169.214 233.272 169.237 233.239 169.261L233.211 169.281L233.203 169.285L233.2 169.288C233.198 169.288 233.197 169.288 232.466 168.183L232.372 169.507L232.366 169.506L232.356 169.505L232.322 169.501C232.138 169.481 231.955 169.458 231.772 169.432C229.625 169.119 227.522 168.529 225.512 167.675C221.958 166.148 217.814 163.267 216.418 157.956L213.692 147.582L225.004 139.794ZM232.466 168.183L232.372 169.507L232.824 169.547L233.199 169.289L232.466 168.183ZM232.103 166.804L232.113 166.796C233.649 165.606 235.03 164.219 236.221 162.668C238.346 159.883 240.002 156.191 238.912 152.043L236.666 143.498L225.721 142.522L216.671 148.753L218.917 157.298C220.007 161.446 223.264 163.844 226.484 165.229C228.288 165.994 230.176 166.523 232.103 166.804ZM235.265 147.97L228.821 159.392L222.084 155.327L223.373 153.041L227.863 155.753L233.019 146.615L235.264 147.97L235.265 147.97Z"></path>
<g clip-path="url(#clip2_1095_2397)">
<rect fill="#F4FFF8" transform="rotate(27.1733 423.811 256)" rx="19.5" height="39" width="39" y="256" x="423.811"></rect>
<path fill="#92BFF0" d="M446.173 281.349C446.971 278.629 446.795 275.715 445.677 273.11C444.558 270.505 442.566 268.371 440.044 267.077C437.522 265.782 434.627 265.407 431.858 266.016C429.089 266.626 426.62 268.182 424.874 270.416C422.69 269.745 420.334 269.916 418.271 270.897C416.207 271.877 414.585 273.595 413.726 275.712C412.867 277.829 412.832 280.191 413.628 282.333C414.424 284.474 415.994 286.24 418.028 287.281L418.57 287.559L419.683 285.39L419.141 285.112C417.591 284.322 416.41 282.959 415.847 281.313C415.284 279.667 415.383 277.867 416.124 276.293C416.865 274.719 418.189 273.494 419.817 272.879C421.444 272.264 423.247 272.307 424.844 272.997L425.782 273.401L426.343 272.548C427.665 270.542 429.681 269.095 432.005 268.484C434.329 267.874 436.796 268.143 438.933 269.24C441.071 270.337 442.728 272.185 443.586 274.429C444.444 276.673 444.444 279.155 443.584 281.399L443.218 282.352L444.093 282.88C445.579 283.777 446.659 285.217 447.105 286.895C447.551 288.574 447.327 290.36 446.482 291.876C445.636 293.393 444.235 294.522 442.573 295.025C440.911 295.529 439.118 295.367 437.573 294.574L437.031 294.296L435.918 296.464L436.46 296.743C438.491 297.788 440.841 298.035 443.045 297.434C445.249 296.832 447.148 295.427 448.367 293.495C449.587 291.563 450.038 289.244 449.631 286.995C449.225 284.747 447.991 282.733 446.173 281.349Z"></path>
<path fill="#92BFF0" d="M436.504 292.655L437.617 290.486L435.339 289.317C435.548 288.566 435.61 287.782 435.521 287.009L437.966 286.222L437.22 283.902L434.775 284.688C434.396 284.008 433.889 283.407 433.282 282.919L434.451 280.641L432.283 279.528L431.113 281.806C430.363 281.597 429.579 281.536 428.805 281.624L428.019 279.179L425.699 279.925L426.485 282.37C425.805 282.749 425.204 283.256 424.716 283.863L422.438 282.694L421.325 284.862L423.603 286.032C423.394 286.782 423.332 287.566 423.421 288.34L420.976 289.126L421.722 291.446L424.167 290.66C424.546 291.34 425.053 291.941 425.66 292.429L424.491 294.707L426.659 295.82L427.828 293.542C428.579 293.751 429.363 293.813 430.137 293.724L430.923 296.169L433.243 295.423L432.457 292.978C433.137 292.599 433.738 292.092 434.226 291.485L436.504 292.655ZM427.801 290.927C427.158 290.597 426.627 290.083 426.275 289.451C425.924 288.819 425.768 288.097 425.827 287.376C425.886 286.656 426.157 285.969 426.606 285.402C427.056 284.835 427.663 284.415 428.352 284.194C429.04 283.972 429.779 283.96 430.474 284.158C431.169 284.357 431.79 284.757 432.258 285.308C432.726 285.859 433.02 286.537 433.103 287.255C433.186 287.974 433.054 288.701 432.724 289.344C432.28 290.206 431.513 290.857 430.59 291.153C429.667 291.45 428.664 291.369 427.801 290.927Z"></path>
</g>
<g clip-path="url(#clip3_1095_2397)">
<rect fill="white" transform="rotate(41.968 389.328 78.541)" rx="7.81093" height="145.06" width="102.658" y="78.541" x="389.328"></rect>
<rect fill="#FEEAE1" transform="rotate(41.968 381.393 97.5293)" rx="2.55574" height="5.11148" width="28.5391" y="97.5293" x="381.393"></rect>
<path fill="#FEEAE1" d="M394.654 82.7842L426.824 111.718L418.654 120.802C417.461 122.128 415.42 122.236 414.094 121.044L386.725 96.4287C385.399 95.2362 385.291 93.1946 386.484 91.8686L394.654 82.7842Z"></path>
<path fill="#F26524" d="M402.652 95.6182L398.178 100.593L397.089 99.6133L401.563 94.6388L402.652 95.6182ZM400.593 99.7734L399.396 98.6972L400.267 97.7292L401.222 98.5877C401.486 98.8255 401.734 98.9468 401.964 98.9517C402.199 98.9521 402.421 98.8357 402.631 98.6027C402.84 98.3697 402.931 98.1387 402.901 97.9097C402.876 97.6763 402.731 97.4407 402.467 97.2029L401.513 96.3444L402.383 95.3764L403.58 96.4526C403.92 96.7589 404.154 97.0944 404.28 97.459C404.41 97.8277 404.432 98.2 404.345 98.5759C404.267 98.9514 404.079 99.3049 403.78 99.6365C403.482 99.9682 403.148 100.195 402.779 100.317C402.419 100.439 402.048 100.454 401.668 100.363C401.292 100.276 400.934 100.08 400.593 99.7734ZM403.437 105.322L401.487 103.569L405.961 98.5946L407.844 100.287C408.332 100.727 408.665 101.217 408.843 101.758C409.026 102.303 409.053 102.859 408.925 103.425C408.797 103.991 408.512 104.52 408.068 105.013C407.633 105.497 407.145 105.832 406.604 106.019C406.068 106.21 405.524 106.247 404.971 106.131C404.423 106.019 403.912 105.75 403.437 105.322ZM406.603 100.072L403.012 104.065L402.966 103.075L404.236 104.217C404.523 104.475 404.82 104.637 405.126 104.702C405.437 104.77 405.745 104.743 406.05 104.621C406.355 104.498 406.645 104.284 406.919 103.979C407.201 103.666 407.383 103.346 407.463 103.022C407.553 102.697 407.543 102.38 407.432 102.07C407.33 101.759 407.129 101.469 406.829 101.199L405.626 100.117L406.603 100.072ZM412.164 104.173L407.69 109.148L406.601 108.169L411.075 103.194L412.164 104.173ZM413.335 107.05L410.269 104.293L411.176 103.285L414.241 106.042L413.335 107.05ZM411.185 108.777L408.423 106.292L409.305 105.311L412.068 107.796L411.185 108.777Z"></path>
<rect fill="#FEEAE1" transform="rotate(41.968 436.906 145.394)" rx="0.851913" height="1.70383" width="14.9085" y="145.394" x="436.906"></rect>
<rect fill="#FEEAE1" transform="rotate(41.968 434.629 147.928)" rx="0.851913" height="1.70383" width="14.9085" y="147.928" x="434.629"></rect>
<rect fill="#FEEAE1" transform="rotate(41.968 432.348 150.462)" rx="0.851913" height="1.70383" width="14.9085" y="150.462" x="432.348"></rect>
<rect fill="#FEEAE1" transform="rotate(41.968 367.621 112.87)" rx="1.2779" height="2.5558" width="88.1751" y="112.87" x="367.621"></rect>
<rect fill="#FEEAE1" transform="rotate(41.968 326.625 158.447)" rx="1.2779" height="2.5558" width="88.1751" y="158.447" x="326.625"></rect>
<rect fill="#FEEAE1" transform="rotate(41.968 363.062 117.938)" rx="1.2779" height="2.5558" width="79.2298" y="117.938" x="363.062"></rect>
<rect fill="#FEEAE1" transform="rotate(41.968 322.068 163.515)" rx="1.2779" height="2.5558" width="79.2298" y="163.515" x="322.068"></rect>
<rect fill="#FEEAE1" transform="rotate(41.968 358.504 123.003)" rx="1.2779" height="2.5558" width="85.6193" y="123.003" x="358.504"></rect>
<rect fill="#FEEAE1" transform="rotate(41.968 317.51 168.584)" rx="1.2779" height="2.5558" width="85.6193" y="168.584" x="317.51"></rect>
<rect fill="#FEEAE1" transform="rotate(41.968 353.945 128.072)" rx="1.2779" height="2.5558" width="77.5259" y="128.072" x="353.945"></rect>
<rect fill="#FEEAE1" transform="rotate(41.968 312.953 173.65)" rx="1.2779" height="2.5558" width="77.5259" y="173.65" x="312.953"></rect>
<rect fill="#FEEAE1" transform="rotate(41.968 349.391 133.139)" rx="1.2779" height="2.5558" width="82.2116" y="133.139" x="349.391"></rect>
<rect fill="#FEEAE1" transform="rotate(41.968 308.395 178.718)" rx="1.2779" height="2.5558" width="82.2116" y="178.718" x="308.395"></rect>
<rect fill="#FEEAE1" transform="rotate(41.968 344.832 138.206)" rx="1.2779" height="2.5558" width="74.9701" y="138.206" x="344.832"></rect>
<rect fill="#FEEAE1" transform="rotate(41.968 335.715 148.34)" rx="1.2779" height="2.5558" width="80.5077" y="148.34" x="335.715"></rect>
<rect fill="#FEEAE1" transform="rotate(41.968 331.158 153.409)" rx="1.2779" height="2.5558" width="88.1751" y="153.409" x="331.158"></rect>
</g>
<rect stroke-width="0.687021" stroke="#F26624" transform="rotate(41.968 389.354 79.0261)" rx="7.46742" height="144.373" width="101.971" y="79.0261" x="389.354"></rect>
<g filter="url(#filter0_d_1095_2397)">
<g clip-path="url(#clip4_1095_2397)">
<rect fill="white" transform="rotate(8.45531 294.689 70.4141)" rx="7.81093" height="145.06" width="102.658" y="70.4141" x="294.689"></rect>
<rect fill="#FEEAE1" transform="rotate(8.45531 298.559 90.624)" rx="2.55574" height="5.11148" width="28.5391" y="90.624" x="298.559"></rect>
<path fill="#FEEAE1" d="M301.475 71.0088L344.272 77.3707L342.475 89.4561C342.213 91.22 340.57 92.4374 338.806 92.1752L302.397 86.7628C300.633 86.5006 299.416 84.8581 299.678 83.0942L301.475 71.0088Z"></path>
<path fill="#F26524" d="M315.227 77.2946L314.244 83.9123L312.795 83.6969L313.779 77.0792L315.227 77.2946ZM315.805 81.8958L314.213 81.6592L314.404 80.3714L315.674 80.5602C316.026 80.6125 316.299 80.5769 316.495 80.4536C316.69 80.3243 316.811 80.1046 316.858 79.7946C316.904 79.4846 316.851 79.2422 316.701 79.0674C316.551 78.8867 316.3 78.7702 315.948 78.7179L314.678 78.5292L314.87 77.2414L316.462 77.478C316.915 77.5454 317.294 77.6963 317.601 77.9307C317.913 78.1661 318.137 78.4644 318.272 78.8257C318.414 79.182 318.452 79.5807 318.387 80.0219C318.321 80.4631 318.168 80.8364 317.928 81.1419C317.694 81.4424 317.394 81.6597 317.027 81.794C316.665 81.9292 316.258 81.9631 315.805 81.8958ZM321.24 84.9523L318.646 84.5667L319.63 77.949L322.134 78.3212C322.784 78.4178 323.332 78.6426 323.78 78.9955C324.233 79.3492 324.562 79.7974 324.768 80.3398C324.974 80.8823 325.028 81.4814 324.93 82.1372C324.835 82.7811 324.613 83.3301 324.265 83.7841C323.923 84.2391 323.49 84.5708 322.966 84.7792C322.447 84.9885 321.872 85.0462 321.24 84.9523ZM320.98 78.8261L320.191 84.1382L319.606 83.3383L321.296 83.5896C321.678 83.6463 322.014 83.6171 322.305 83.5019C322.603 83.3877 322.845 83.1952 323.031 82.9243C323.218 82.6534 323.341 82.3153 323.401 81.9099C323.463 81.4925 323.438 81.1263 323.327 80.8111C323.222 80.4909 323.038 80.232 322.775 80.0344C322.519 79.8318 322.191 79.7008 321.791 79.6414L320.191 79.4034L320.98 78.8261ZM327.882 79.1757L326.898 85.7934L325.449 85.5781L326.433 78.9603L327.882 79.1757ZM330.446 80.9279L326.368 80.3217L326.567 78.9803L330.645 79.5865L330.446 80.9279ZM329.608 83.5546L325.932 83.0082L326.126 81.7025L329.802 82.2489L329.608 83.5546Z"></path>
<rect fill="#FEEAE1" transform="rotate(8.45531 371.268 99.8828)" rx="0.851913" height="1.70383" width="14.9085" y="99.8828" x="371.268"></rect>
<rect fill="#FEEAE1" transform="rotate(8.45531 370.77 103.254)" rx="0.851913" height="1.70383" width="14.9085" y="103.254" x="370.77"></rect>
<rect fill="#FEEAE1" transform="rotate(8.45531 370.268 106.626)" rx="0.851913" height="1.70383" width="14.9085" y="106.626" x="370.268"></rect>
<rect fill="#FEEAE1" transform="rotate(8.45531 295.543 111.021)" rx="1.2779" height="2.5558" width="88.1751" y="111.021" x="295.543"></rect>
<rect fill="#FEEAE1" transform="rotate(8.45531 286.529 171.655)" rx="1.2779" height="2.5558" width="88.1751" y="171.655" x="286.529"></rect>
<rect fill="#FEEAE1" transform="rotate(8.45531 294.541 117.761)" rx="1.2779" height="2.5558" width="79.2298" y="117.761" x="294.541"></rect>
<rect fill="#FEEAE1" transform="rotate(8.45531 285.527 178.397)" rx="1.2779" height="2.5558" width="79.2298" y="178.397" x="285.527"></rect>
<rect fill="#FEEAE1" transform="rotate(8.45531 293.539 124.504)" rx="1.2779" height="2.5558" width="85.6193" y="124.504" x="293.539"></rect>
<rect fill="#FEEAE1" transform="rotate(8.45531 284.525 185.137)" rx="1.2779" height="2.5558" width="85.6193" y="185.137" x="284.525"></rect>
<rect fill="#FEEAE1" transform="rotate(8.45531 292.535 131.244)" rx="1.2779" height="2.5558" width="77.5259" y="131.244" x="292.535"></rect>
<rect fill="#FEEAE1" transform="rotate(8.45531 283.523 191.878)" rx="1.2779" height="2.5558" width="77.5259" y="191.878" x="283.523"></rect>
<rect fill="#FEEAE1" transform="rotate(8.45531 291.535 137.987)" rx="1.2779" height="2.5558" width="82.2116" y="137.987" x="291.535"></rect>
<rect fill="#FEEAE1" transform="rotate(8.45531 282.521 198.62)" rx="1.2779" height="2.5558" width="82.2116" y="198.62" x="282.521"></rect>
<rect fill="#FEEAE1" transform="rotate(8.45531 290.531 144.728)" rx="1.2779" height="2.5558" width="74.9701" y="144.728" x="290.531"></rect>
<rect fill="#FEEAE1" transform="rotate(8.45531 288.527 158.21)" rx="1.2779" height="2.5558" width="80.5077" y="158.21" x="288.527"></rect>
<rect fill="#FEEAE1" transform="rotate(8.45531 287.525 164.951)" rx="1.2779" height="2.5558" width="88.1751" y="164.951" x="287.525"></rect>
</g>
<rect stroke-width="0.687021" stroke="#F26624" transform="rotate(8.45531 294.979 70.8043)" rx="7.46742" height="144.373" width="101.971" y="70.8043" x="294.979"></rect>
</g>
<g filter="url(#filter1_d_1095_2397)">
<g clip-path="url(#clip5_1095_2397)">
<rect fill="white" transform="rotate(-12.2857 96 250.572)" rx="7.7384" height="145.244" width="204.77" y="250.572" x="96"></rect>
<rect fill="#CAF4D9" transform="rotate(-12.2857 96 250.572)" height="14.6125" width="205.619" y="250.572" x="96"></rect>
<path fill="#CAF4D9" d="M165.257 275.741L132.465 282.882C131.675 283.054 130.985 283.532 130.547 284.21C130.109 284.888 129.959 285.711 130.13 286.498L135.945 313.199C136.117 313.986 136.595 314.673 137.275 315.107C137.956 315.542 138.782 315.689 139.573 315.517L172.364 308.376C173.155 308.204 173.845 307.726 174.283 307.048C174.721 306.37 174.871 305.547 174.699 304.76L168.885 278.058C168.713 277.272 168.235 276.585 167.555 276.151C166.874 275.716 166.048 275.569 165.257 275.741ZM165.904 278.708L170.053 297.76L164.143 293.986C163.806 293.771 163.43 293.623 163.036 293.553C162.642 293.483 162.237 293.49 161.846 293.576C161.454 293.661 161.083 293.822 160.754 294.05C160.425 294.278 160.143 294.568 159.927 294.904L157.008 299.424L147.033 293.051C146.353 292.616 145.527 292.469 144.737 292.641C143.947 292.813 143.257 293.291 142.819 293.968L136.882 303.162L133.112 285.849L165.904 278.708ZM137.796 307.358L145.384 295.606L163.52 307.194L138.926 312.55L137.796 307.358ZM171.718 305.409L167.737 306.276L159.576 301.062L162.494 296.541L170.967 301.956L171.718 305.409ZM154.265 289.788C154.17 289.348 154.207 288.889 154.373 288.47C154.539 288.05 154.826 287.689 155.198 287.432C155.57 287.174 156.01 287.032 156.462 287.024C156.915 287.015 157.359 287.14 157.74 287.383C158.12 287.626 158.419 287.976 158.6 288.389C158.78 288.802 158.833 289.259 158.752 289.703C158.672 290.146 158.461 290.556 158.146 290.881C157.832 291.205 157.428 291.43 156.986 291.526C156.393 291.655 155.773 291.545 155.263 291.219C154.753 290.893 154.394 290.378 154.265 289.788Z"></path>
<rect fill="#CAF4D9" transform="rotate(-12.2857 190.957 269.781)" rx="1.46391" height="2.92782" width="101.01" y="269.781" x="190.957"></rect>
<rect fill="#CAF4D9" transform="rotate(-12.2857 192.594 277.295)" rx="1.46391" height="2.92782" width="90.7625" y="277.295" x="192.594"></rect>
<rect fill="#CAF4D9" transform="rotate(-12.2857 194.23 284.809)" rx="1.46391" height="2.92782" width="98.0821" y="284.809" x="194.23"></rect>
<rect fill="#CAF4D9" transform="rotate(-12.2857 195.865 292.322)" rx="1.46391" height="2.92782" width="88.8106" y="292.322" x="195.865"></rect>
<rect fill="#CAF4D9" transform="rotate(-12.2857 197.502 299.837)" rx="1.46391" height="2.92782" width="94.1783" y="299.837" x="197.502"></rect>
<rect fill="#CAF4D9" transform="rotate(-12.2857 132.201 346.864)" rx="1.48815" height="2.97631" width="80.9556" y="346.864" x="132.201"></rect>
<rect fill="#CAF4D9" transform="rotate(-12.2857 133.848 354.426)" rx="1.48815" height="2.97631" width="87.5034" y="354.426" x="133.848"></rect>
<rect fill="#CAF4D9" transform="rotate(-12.2857 135.494 361.986)" rx="1.48815" height="2.97631" width="79.1698" y="361.986" x="135.494"></rect>
<circle fill="#00A43E" transform="rotate(-12.2857 109.343 254.803)" r="3.13125" cy="254.803" cx="109.343"></circle>
<circle fill="#00A43E" transform="rotate(-12.2857 118.521 252.805)" r="3.13125" cy="252.805" cx="118.521"></circle>
<circle fill="#00A43E" transform="rotate(-12.2857 127.7 250.806)" r="3.13125" cy="250.806" cx="127.7"></circle>
<rect fill="#CAF4D9" transform="rotate(-12.2857 233.709 320.654)" rx="4.175" height="25.05" width="25.05" y="320.654" x="233.709"></rect>
<rect fill="#CAF4D9" transform="rotate(-12.2857 266.344 313.547)" rx="4.175" height="25.05" width="25.05" y="313.547" x="266.344"></rect>
</g>
<rect stroke-width="0.855874" stroke="#00A43E" transform="rotate(-12.2857 96.5092 250.899)" rx="7.31046" height="144.388" width="203.914" y="250.899" x="96.5092"></rect>
</g>
<defs>
<filter color-interpolation-filters="sRGB" filterUnits="userSpaceOnUse" height="285.458" width="249.753" y="22.834" x="209.919" id="filter0_d_1095_2397">
<feFlood result="BackgroundImageFix" flood-opacity="0"></feFlood>
<feColorMatrix result="hardAlpha" values="0 0 0 0 0 0 0 0 0 0 0 0 0 0 0 0 0 0 127 0" type="matrix" in="SourceAlpha"></feColorMatrix>
<feMorphology result="effect1_dropShadow_1095_2397" in="SourceAlpha" operator="dilate" radius="10.5733"></feMorphology>
<feOffset dy="15.86"></feOffset>
<feGaussianBlur stdDeviation="26.4334"></feGaussianBlur>
<feComposite operator="out" in2="hardAlpha"></feComposite>
<feColorMatrix values="0 0 0 0 0 0 0 0 0 0 0 0 0 0 0 0 0 0 0.04 0" type="matrix"></feColorMatrix>
<feBlend result="effect1_dropShadow_1095_2397" in2="BackgroundImageFix" mode="normal"></feBlend>
<feBlend result="shape" in2="effect1_dropShadow_1095_2397" in="SourceGraphic" mode="normal"></feBlend>
</filter>
<filter color-interpolation-filters="sRGB" filterUnits="userSpaceOnUse" height="310.74" width="356.236" y="160.031" x="33.375" id="filter1_d_1095_2397">
<feFlood result="BackgroundImageFix" flood-opacity="0"></feFlood>
<feColorMatrix result="hardAlpha" values="0 0 0 0 0 0 0 0 0 0 0 0 0 0 0 0 0 0 127 0" type="matrix" in="SourceAlpha"></feColorMatrix>
<feMorphology result="effect1_dropShadow_1095_2397" in="SourceAlpha" operator="dilate" radius="10.4375"></feMorphology>
<feOffset dy="15.6562"></feOffset>
<feGaussianBlur stdDeviation="26.0937"></feGaussianBlur>
<feComposite operator="out" in2="hardAlpha"></feComposite>
<feColorMatrix values="0 0 0 0 0 0 0 0 0 0 0 0 0 0 0 0 0 0 0.04 0" type="matrix"></feColorMatrix>
<feBlend result="effect1_dropShadow_1095_2397" in2="BackgroundImageFix" mode="normal"></feBlend>
<feBlend result="shape" in2="effect1_dropShadow_1095_2397" in="SourceGraphic" mode="normal"></feBlend>
</filter>
<clipPath id="clip0_1095_2397">
<rect transform="translate(111 193.854) rotate(-19.0031)" fill="white" height="36.4023" width="36.4023"></rect>
</clipPath>
<clipPath id="clip1_1095_2397">
<rect fill="white" transform="rotate(11.0764 341.049 316)" rx="20.1092" height="41.8942" width="40.2184" y="316" x="341.049"></rect>
</clipPath>
<clipPath id="clip2_1095_2397">
<rect fill="white" transform="rotate(27.1733 423.811 256)" rx="19.5" height="39" width="39" y="256" x="423.811"></rect>
</clipPath>
<clipPath id="clip3_1095_2397">
<rect fill="white" transform="rotate(41.968 389.328 78.541)" rx="7.81093" height="145.06" width="102.658" y="78.541" x="389.328"></rect>
</clipPath>
<clipPath id="clip4_1095_2397">
<rect fill="white" transform="rotate(8.45531 294.689 70.4141)" rx="7.81093" height="145.06" width="102.658" y="70.4141" x="294.689"></rect>
</clipPath>
<clipPath id="clip5_1095_2397">
<rect fill="white" transform="rotate(-12.2857 96 250.572)" rx="7.7384" height="145.244" width="204.77" y="250.572" x="96"></rect>
</clipPath>
</defs>
</svg>
